#!OML:ASF F:\VICON\USERDATA\INSTALL\rory3\rory3.ASF
:FULLY-SPECIFIED
:DEGREES
595
root 13.7865 17.7235 12.0004 -183.344 -5.23039 -178.192
lowerback 14.8467 1.43223 -0.796199
upperback 1.24184 1.60163 0.242275
thorax -7.03942 0.728505 0.387151
lowerneck -17.284 -6.60004 -13.5547
upperneck 30.0531 -10.9508 10.5486
head 14.6248 -5.59073 4.47965
rclavicle 9.49197e-015 -4.57205e-015
rhumerus -36.956 -14.1479 -73.8337
rradius 36.8149
rwrist 3.47907
rhand -21.1727 3.30057
rfingers 7.12502
rthumb 5.20763 -26.6154
lclavicle 9.49197e-015 -4.57205e-015
lhumerus -33.8577 8.01934 77.0968
lradius 38.8281
lwrist -4.86841
lhand -16.5738 26.333
lfingers 7.12502
lthumb 9.64654 56.0921
rfemur -7.3757 0.354783 18.1983
rtibia 32.3586
rfoot -18.1344 -3.46901
rtoes -4.2393
lfemur -12.8928 0.52394 -18.6323
ltibia 44.3671
lfoot -21.374 -16.9286
ltoes -15.0495
596
root 13.8531 17.7064 12.0081 -183.298 -5.2932 -178.057
lowerback 14.777 1.34839 -0.686988
upperback 1.19401 1.52463 0.380033
thorax -7.05157 0.692306 0.488125
lowerneck -17.3019 -6.54545 -13.4394
upperneck 30.0593 -10.8434 10.3909
head 14.5934 -5.54943 4.41465
rclavicle 4.74598e-015 4.96962e-015
rhumerus -36.9847 -14.0653 -73.5451
rradius 36.598
rwrist 3.30856
rhand -21.3041 4.13444
rfingers 7.12502
rthumb 5.08069 -25.7846
lclavicle 4.74598e-015 4.96962e-015
lhumerus -34.0734 7.69918 77.6577
lradius 39.1584
lwrist -4.77809
lhand -16.5417 26.9344
lfingers 7.12502
lthumb 9.67753 56.6921
rfemur -7.66054 0.165432 18.5327
rtibia 32.7828
rfoot -18.3462 -3.21121
rtoes -2.78743
lfemur -12.7885 0.744947 -19.3229
ltibia 44.2322
lfoot -21.7682 -17.9959
ltoes -16.4178
597
root 13.9191 17.6925 12.0103 -183.206 -5.35767 -177.799
lowerback 14.5665 1.29386 -0.506804
upperback 1.14946 1.50284 0.558765
thorax -6.98186 0.681988 0.583432
lowerneck -17.2978 -6.50413 -13.3214
upperneck 30.1668 -10.7945 10.2265
head 14.6115 -5.54203 4.33687
rclavicle -1.2921e-015 -8.94531e-015
rhumerus -36.9417 -14.069 -73.2247
rradius 36.2888
rwrist 3.3025
rhand -21.074 4.57306
rfingers 7.12502
rthumb 5.30287 -25.3406
lclavicle -1.2921e-015 -8.94531e-015
lhumerus -34.2795 7.40756 78.2513
lradius 39.5677
lwrist -4.68834
lhand -16.144 27.349
lfingers 7.12502
lthumb 10.0612 57.0885
rfemur -8.02501 -0.0815444 19.0062
rtibia 33.2005
rfoot -18.5267 -3.05442
rtoes -2.3632
lfemur -12.649 0.817223 -19.7949
ltibia 43.9564
lfoot -22.1102 -18.8377
ltoes -17.5802
598
root 13.9876 17.676 12.0154 -183.111 -5.41182 -177.536
lowerback 14.3553 1.25175 -0.352083
upperback 1.13369 1.48878 0.736321
thorax -6.88173 0.67471 0.690394
lowerneck -17.3982 -6.49555 -13.2989
upperneck 30.344 -10.7947 10.1475
head 14.706 -5.55454 4.3008
rclavicle 6.21202e-017 5.1684e-015
rhumerus -36.8151 -14.2346 -72.9099
rradius 36.0203
rwrist 3.65699
rhand -20.7898 4.3562
rfingers 7.12502
rthumb 5.57727 -25.5504
lclavicle 6.21202e-017 5.1684e-015
lhumerus -34.3063 7.15014 78.7871
lradius 39.5635
lwrist -4.28807
lhand -16.1612 23.4116
lfingers 7.12502
lthumb 10.0447 53.1518
rfemur -8.42209 -0.431253 19.4737
rtibia 33.6188
rfoot -18.7217 -2.80475
rtoes -2.66479
lfemur -12.5614 0.831803 -20.1841
ltibia 43.4944
lfoot -21.285 -20.2752
ltoes -15.4073
599
root 14.0586 17.6571 12.0218 -183.052 -5.47303 -177.319
lowerback 14.2727 1.18149 -0.35739
upperback 1.06972 1.41445 0.945961
thorax -6.90853 0.643817 0.931194
lowerneck -17.4808 -6.46235 -13.3629
upperneck 30.5437 -10.7781 10.1549
head 14.817 -5.56485 4.31988
rclavicle -4.27884e-014 4.57205e-015
rhumerus -36.8222 -14.0333 -72.6805
rradius 35.9951
rwrist 3.81368
rhand -20.6501 4.22394
rfingers 7.12502
rthumb 5.71219 -25.6791
lclavicle -4.27884e-014 4.57205e-015
lhumerus -34.4379 6.94157 79.261
lradius 39.6515
lwrist -4.03895
lhand -16.293 25.3657
lfingers 7.12502
lthumb 9.91751 55.1121
rfemur -8.77606 -0.76119 19.9106
rtibia 34.0389
rfoot -18.8752 -2.56426
rtoes -2.73102
lfemur -12.4566 0.8578 -20.5464
ltibia 42.8491
lfoot -20.0084 -21.7678
ltoes -13.3601
600
root 14.1233 17.6404 12.0165 -182.969 -5.54153 -177.376
lowerback 14.0678 1.12398 -0.558279
upperback 1.02907 1.31834 1.02225
thorax -6.84245 0.607017 1.14713
lowerneck -17.4863 -6.46225 -13.3747
upperneck 30.6177 -10.8162 10.1783
head 14.8604 -5.58758 4.32464
rclavicle 4.60932e-015 -1.98785e-016
rhumerus -36.8808 -13.9861 -72.4735
rradius 35.9846
rwrist 3.95722
rhand -20.441 4.06622
rfingers 7.12502
rthumb 5.91402 -25.8312
lclavicle 4.60932e-015 -1.98785e-016
lhumerus -34.5958 6.92751 79.5974
lradius 39.917
lwrist -4.25074
lhand -16.2304 26.5202
lfingers 7.12502
lthumb 9.97789 56.2637
rfemur -9.04369 -1.21439 19.9832
rtibia 34.4304
rfoot -19.2392 -2.16077
rtoes -2.24778
lfemur -12.1749 0.829683 -21.1657
ltibia 42.0642
lfoot -18.9279 -22.7228
ltoes -14.3653
601
root 14.1874 17.6251 12.007 -182.921 -5.56579 -177.411
lowerback 13.8135 1.11431 -0.716235
upperback 1.04968 1.28673 1.06347
thorax -6.68258 0.597533 1.2895
lowerneck -17.5056 -6.49353 -13.3304
upperneck 30.6529 -10.9128 10.2202
head 14.8965 -5.6226 4.3147
rclavicle -1.24986e-014 2.78299e-015
rhumerus -36.8672 -14.3636 -72.1998
rradius 35.748
rwrist 4.45316
rhand -20.0773 4.24134
rfingers 7.12502
rthumb 6.2652 -25.646
lclavicle -1.24986e-014 2.78299e-015
lhumerus -34.551 6.69475 80.0888
lradius 39.9233
lwrist -3.278
lhand -17.5549 24.4202
lfingers 7.12502
lthumb 8.69986 54.221
rfemur -9.23918 -1.59491 20.0811
rtibia 34.7612
rfoot -19.6364 -1.69161
rtoes -1.33578
lfemur -11.7396 0.795216 -21.6657
ltibia 41.2329
lfoot -17.1186 -23.7544
ltoes -14.8289
